<svg height="24" viewBox="0 0 24 24" width="24"><path clip-rule="evenodd" d="M20 10V8H17.19C16.74 7.22 16.12 6.54 15.37 6.04L17 4.41L15.59 3L13.42 5.17C13.39 5.16 13.37 5.16 13.34 5.16C13.18 5.12 13.02 5.1 12.85 5.07C12.79 5.06 12.74 5.05 12.68 5.04C12.46 5.02 12.23 5 12 5C11.51 5 11.03 5.07 10.58 5.18L10.6 5.17L8.41 3L7 4.41L8.62 6.04H8.63C7.88 6.54 7.26 7.22 6.81 8H4V10H6.09C6.03 10.33 6 10.66 6 11V12H4V14H6V15C6 15.34 6.04 15.67 6.09 16H4V18H6.81C7.85 19.79 9.78 21 12 21C14.22 21 16.15 19.79 17.19 18H20V16H17.91C17.96 15.67 18 15.34 18 15V14H20V12H18V11C18 10.66 17.96 10.33 17.91 10H20ZM16 15C16 17.21 14.21 19 12 19C9.79 19 8 17.21 8 15V11C8 8.79 9.79 7 12 7C14.21 7 16 8.79 16 11V15ZM10 14H14V16H10V14ZM10 10H14V12H10V10Z" fill="white" fill-rule="evenodd"></path></svg>