<svg fill="none" height="24" viewBox="0 0 24 24" width="24"><path clip-rule="evenodd" d="M2 12C2 6.48 6.48 2 12 2C17.52 2 22 6.48 22 12C22 17.52 17.52 22 12 22C6.48 22 2 17.52 2 12ZM13 16V18H11V16H13ZM12 20C7.59 20 4 16.41 4 12C4 7.59 7.59 4 12 4C16.41 4 20 7.59 20 12C20 16.41 16.41 20 12 20ZM8 10C8 7.79 9.79 6 12 6C14.21 6 16 7.79 16 10C16 11.28 15.21 11.97 14.44 12.64C13.71 13.28 13 13.90 13 15H11C11 13.17 11.94 12.45 12.77 11.82C13.42 11.32 14 10.87 14 10C14 8.9 13.1 8 12 8C10.9 8 10 8.9 10 10H8Z" fill="white" fill-rule="evenodd"></path></svg>